<?xml version="1.0" standalone="no"?>
<!DOCTYPE svg PUBLIC "-//W3C//DTD SVG 20010904//EN"
 "http://www.w3.org/TR/2001/REC-SVG-20010904/DTD/svg10.dtd">
<svg version="1.0" xmlns="http://www.w3.org/2000/svg"
 width="800.000000pt" height="200.000000pt" viewBox="0 0 800.000000 200.000000"
 preserveAspectRatio="xMidYMid meet">

<g transform="translate(0.000000,200.000000) scale(0.100000,-0.100000)"
fill="#000000" stroke="none">
<path d="M1515 1908 c-3 -7 -4 -393 -3 -858 l3 -845 36 -3 c27 -2 39 -9 47
-27 14 -31 51 -38 192 -33 130 4 139 10 141 92 1 44 2 47 8 20 12 -47 19 -54
56 -54 25 0 35 -5 40 -21 8 -24 43 -39 95 -39 58 0 90 16 102 51 7 22 14 27
21 20 6 -6 25 -11 42 -11 24 0 35 -6 43 -24 7 -17 22 -27 44 -31 18 -3 158 -5
310 -3 230 2 280 6 292 18 8 8 22 57 30 109 18 113 31 131 96 131 54 0 54 0
66 -105 9 -81 18 -95 58 -95 25 0 35 -5 39 -20 3 -11 17 -24 32 -30 40 -15
554 -13 585 3 l25 13 5 199 c3 110 7 197 8 194 1 -3 22 -81 46 -173 25 -91 48
-171 51 -176 3 -6 18 -10 33 -10 17 0 34 -10 48 -27 22 -27 25 -28 146 -31
139 -4 178 5 178 41 0 12 -38 149 -85 304 -47 155 -85 292 -85 304 0 13 20 53
45 91 25 37 51 81 56 98 10 27 29 42 29 23 0 -34 125 -781 133 -790 5 -7 21
-13 35 -13 17 0 34 -10 48 -27 l22 -28 167 0 c145 0 169 2 178 16 10 15 12 15
26 -2 11 -14 47 -26 116 -40 113 -24 211 -22 262 4 43 23 233 25 233 3 0 -30
78 -36 104 -7 9 10 36 21 59 24 29 4 48 14 62 31 25 32 61 34 70 5 9 -29 45
-39 136 -39 54 0 90 -5 112 -16 58 -31 142 -29 236 3 47 16 88 36 92 44 43 80
59 133 59 189 0 142 -84 226 -236 237 l-74 6 -2 616 -3 616 -32 14 c-19 8 -33
22 -33 32 0 35 -23 40 -181 37 l-154 -3 -5 -30 c-3 -16 -11 -30 -18 -29 -6 1
-18 2 -26 3 -8 0 -16 13 -18 29 l-3 27 -460 0 -459 0 -42 -293 c-24 -161 -44
-298 -46 -304 -2 -5 -19 104 -37 243 -18 140 -38 260 -44 267 -6 7 -23 20 -38
28 -15 7 -29 24 -31 36 -3 23 -5 23 -171 26 -141 2 -168 0 -173 -13 -3 -8 -1
-49 4 -92 6 -43 10 -78 9 -79 -1 -1 -29 22 -62 52 -128 115 -197 134 -481 134
-157 0 -204 -3 -213 -13 -7 -10 -12 -163 -13 -508 l-3 -494 -69 455 c-37 250
-73 461 -79 468 -6 7 -23 20 -38 28 -15 7 -29 24 -31 36 -3 23 -3 23 -214 26
-161 2 -214 -1 -221 -10 -6 -7 -36 -182 -67 -388 -31 -206 -65 -424 -75 -485
l-19 -110 -1 443 -1 443 -25 24 c-13 14 -31 25 -39 25 -9 0 -16 11 -18 28 l-3
27 -208 3 -207 2 -8 -22 c-5 -13 -26 -130 -47 -261 -21 -131 -40 -236 -42
-234 -2 3 -19 97 -38 211 -18 114 -38 213 -45 220 -6 8 -21 17 -33 20 -13 3
-27 18 -34 36 l-11 30 -201 0 c-152 0 -203 -3 -206 -12z m4303 -553 c1 -93 -2
-173 -7 -178 -14 -14 -49 10 -53 35 -3 22 -8 23 -91 26 l-89 3 4 124 c2 84 7
128 16 137 11 11 170 28 207 23 6 -1 11 -68 13 -170z m-1840 118 c11 -27 16
-67 17 -138 0 -92 -2 -104 -28 -147 -15 -27 -32 -48 -37 -48 -13 0 -13 311 0
344 13 36 28 32 48 -11z m1181 -730 l1 -153 -39 -24 c-38 -24 -71 -83 -71
-125 0 -25 44 -78 81 -97 27 -13 29 -19 29 -70 l0 -56 -47 8 c-27 4 -63 8 -82
8 -31 -1 -33 1 -28 30 3 17 36 227 73 466 l69 435 6 -135 c4 -74 7 -204 8
-287z m-2046 65 c5 -33 3 -38 -15 -38 -18 0 -20 4 -14 31 3 17 6 48 7 68 l1
36 8 -30 c4 -16 10 -47 13 -67z m2707 -94 l0 -114 -125 0 -125 0 0 98 c0 128
2 130 135 134 55 2 103 2 108 0 4 -2 7 -55 7 -118z m-387 -159 c34 -12 47 -22
47 -36 0 -30 -25 -33 -110 -14 -123 28 -220 6 -220 -51 0 -26 32 -45 154 -89
26 -10 63 -31 82 -47 29 -26 34 -36 34 -75 0 -38 -5 -50 -33 -78 -45 -45 -114
-54 -237 -31 -108 20 -140 31 -140 50 0 31 24 35 115 16 144 -30 216 -23 231
23 9 28 -26 69 -72 86 -118 43 -185 75 -196 94 -23 44 0 125 43 148 59 31 217
33 302 4z m525 19 c18 -5 22 -13 20 -33 -3 -26 -4 -26 -108 -31 l-105 -5 -31
-180 c-16 -100 -34 -186 -38 -193 -6 -11 -66 -18 -66 -8 0 2 11 76 25 163 14
87 25 173 25 191 l0 32 -86 0 -85 0 3 27 c2 19 10 29 28 34 31 9 387 11 418 3z
m418 -9 c54 -16 115 -70 133 -118 15 -40 14 -131 -3 -171 -46 -110 -188 -178
-306 -146 -57 15 -130 88 -148 146 -26 88 -11 146 57 217 75 80 162 103 267
72z"/>
<path d="M6239 506 c-84 -30 -129 -86 -129 -161 0 -120 122 -201 223 -148 94
48 132 100 125 172 -6 61 -30 94 -92 126 -56 28 -75 30 -127 11z"/>
<path d="M6780 604 c-14 -3 -49 -12 -78 -20 -72 -20 -78 -35 -132 -335 -23
-129 -18 -149 34 -149 43 0 51 11 66 92 l12 67 169 -84 c93 -47 175 -85 183
-85 8 0 27 11 43 24 28 24 28 24 9 45 -11 12 -59 42 -107 68 -80 42 -101 63
-65 63 29 0 156 73 185 106 24 27 31 44 31 78 0 56 -26 89 -87 111 -47 16
-214 28 -263 19z m241 -34 c61 -17 89 -46 89 -90 0 -69 -68 -126 -203 -170
-38 -12 -65 -26 -60 -31 4 -4 57 -35 118 -67 60 -33 111 -65 113 -70 2 -6 -7
-16 -19 -23 -20 -10 -43 -2 -200 77 -98 48 -181 85 -185 81 -4 -3 -14 -39 -23
-79 -16 -71 -18 -73 -46 -73 -29 0 -30 2 -27 40 4 54 58 323 71 358 12 30 37
43 115 57 60 11 206 5 257 -10z"/>
<path d="M6752 519 c-21 -6 -36 -19 -42 -35 -15 -39 -28 -132 -20 -144 10 -16
125 -4 205 21 140 43 195 126 104 158 -38 13 -201 13 -247 0z m261 -28 c50
-41 -90 -117 -249 -136 l-61 -7 9 57 c16 103 17 104 179 102 73 -2 111 -6 122
-16z"/>
<path d="M7272 583 c-33 -7 -47 -36 -75 -158 -39 -167 -53 -273 -39 -287 16
-16 100 -26 229 -27 134 -1 163 7 163 47 0 48 -13 52 -157 52 l-133 0 5 25 c3
14 7 36 10 50 5 25 5 25 125 25 107 0 122 2 140 20 26 26 26 66 1 80 -11 5
-69 10 -130 10 -99 0 -111 2 -111 18 1 42 14 47 142 50 68 2 129 9 136 15 7 5
12 24 10 41 -2 22 -9 32 -28 37 -27 8 -251 9 -288 2z m267 -19 c25 -5 31 -11
29 -28 -3 -20 -10 -21 -130 -26 -74 -3 -132 -10 -138 -16 -7 -6 -14 -30 -17
-53 l-6 -41 119 0 c136 0 154 -6 136 -44 -12 -26 -12 -26 -136 -26 -69 0 -127
-4 -131 -9 -10 -17 -23 -104 -18 -118 4 -10 38 -13 144 -13 l139 0 0 -24 c0
-13 -7 -27 -16 -30 -20 -8 -224 -6 -289 2 l-50 7 2 48 c2 55 25 177 54 289 19
69 24 77 47 81 46 7 228 7 261 1z"/>
</g>
</svg>
